  <svg
    viewBox="0 0 887 490"
    fill="none"
  >
      <g id="floor">
        <path
          id="floor2"
          d="M373.5 491.962C579.778 491.962 747 483.24 747 472.481C747 461.722 579.778 453 373.5 453C167.222 453 0 461.722 0 472.481C0 483.24 167.222 491.962 373.5 491.962Z"
          fill="#F2F2F2"
        />
        <path
          id="square"
          d="M583.919 468.943H551V440H583.919V468.943ZM553.532 466.717H581.386V442.226H553.532V466.717Z"
          fill="#3F3D56"
        />
        <path
          id="ball"
          d="M583.661 482.264C590.653 482.264 596.322 477.28 596.322 471.132C596.322 464.984 590.653 460 583.661 460C576.669 460 571 464.984 571 471.132C571 477.28 576.669 482.264 583.661 482.264Z"
          fill="#6C63FF"
        />
      </g>
      <g id="tank">
        <path
          id="Vector"
          opacity="0.1"
          d="M465.5 453.408C522.148 453.408 568.07 448.631 568.07 442.739C568.07 436.847 522.148 432.07 465.5 432.07C408.853 432.07 362.931 436.847 362.931 442.739C362.931 448.631 408.853 453.408 465.5 453.408Z"
          fill="black"
        />
        <path
          id="Vector_2"
          d="M465.5 444.679C578.249 444.679 669.65 354.76 669.65 243.84C669.65 132.919 578.249 43 465.5 43C352.751 43 261.35 132.919 261.35 243.84C261.35 354.76 352.751 444.679 465.5 444.679Z"
          fill="#3F3D56"
        />
        <path
          id="Vector_3"
          opacity="0.1"
          d="M635.135 243.831C635.135 335.999 559.179 410.716 465.5 410.716C460.124 410.716 454.798 410.477 449.564 409.99C365.22 402.242 298.801 333.763 295.974 249.459C295.907 247.583 295.873 245.707 295.873 243.831C295.873 239.617 296.033 235.437 296.352 231.289C302.869 144.987 376.116 76.9875 465.508 76.9875C542.672 76.9875 607.792 127.668 628.366 197.029C628.727 198.275 629.087 199.505 629.431 200.783C630.689 205.459 631.752 210.215 632.618 215.05C634.294 224.555 635.136 234.184 635.135 243.831Z"
          fill="black"
        />
        <path
          id="Vector_4"
          opacity="0.4"
          d="M635.135 243.831C635.135 336 559.179 410.717 465.5 410.717C373.733 410.717 298.976 339.012 295.965 249.459C315.307 250.004 335.009 249.376 353.285 243.18C373.096 236.471 390.055 223.632 408.298 213.474C457.305 186.286 515.791 178.967 571.777 184.347C590.791 186.17 610.51 189.966 628.358 196.947C632.866 212.166 635.148 227.938 635.135 243.79V243.831Z"
          fill="#585EC7"
        />
        <path
          id="Vector_5"
          opacity="0.4"
          d="M635.134 243.831C635.134 336 559.178 410.717 465.499 410.717C460.123 410.717 454.797 410.478 449.563 409.991C422.056 396.626 398.748 376.172 382.121 350.808C365.493 325.444 356.168 296.118 355.138 265.954C374.479 266.498 394.181 265.871 412.458 259.674C432.277 252.966 449.228 240.127 467.47 229.969C516.033 203.02 573.898 195.602 629.422 200.701C630.68 205.377 631.743 210.132 632.61 214.968C634.293 224.5 635.137 234.157 635.134 243.831Z"
          fill="#585EC7"
        />
        <path
          id="Vector_6"
          d="M635.135 256.185C635.135 348.354 559.179 423.071 465.5 423.071C371.821 423.071 295.865 348.354 295.865 256.185C295.865 251.971 296.024 247.79 296.343 243.643C309.72 245.251 322.777 248.825 335.076 254.246C354.971 263.034 372.668 276.525 393.36 283.299C408.457 288.25 424.511 289.43 440.396 289.9C460.233 290.519 480.488 290.024 499.251 283.662C519.062 276.954 536.013 264.114 554.264 253.998C578.528 240.532 605.142 231.942 632.61 227.354C634.291 236.875 635.136 246.521 635.135 256.185Z"
          fill="#585EC7"
        />
      </g>
      <g id="flower_big">
        <path
          id="Vector_7"
          d="M159.934 465.158C164.011 457.732 159.389 448.655 154.063 442.054C148.737 435.453 142.321 428.563 142.422 420.138C142.623 408.033 155.682 400.879 166.124 394.46C173.872 389.7 181.018 384.053 187.411 377.635C189.978 375.061 192.444 372.305 193.953 369.021C196.109 364.292 196.05 358.904 195.916 353.714C195.463 336.447 194.593 319.19 193.307 301.945"
          stroke="#3F3D56"
          stroke-width="4"
          stroke-miterlimit="10"
        />
        <path
          id="Vector_8"
          d="M213.155 300.996C213.005 297.834 212.049 294.76 210.373 292.057C208.698 289.354 206.357 287.111 203.568 285.533L199.274 293.891L199.399 283.767C195.497 282.638 191.331 282.758 187.502 284.11C183.673 285.462 180.381 287.976 178.099 291.289C175.817 294.603 174.665 298.543 174.808 302.543C174.951 306.542 176.382 310.394 178.894 313.541C181.407 316.688 184.871 318.968 188.787 320.052C192.702 321.137 196.867 320.969 200.679 319.573C204.492 318.177 207.754 315.625 209.997 312.286C212.239 308.947 213.345 304.993 213.155 300.996Z"
          fill="#009BE5"
        />
        <path
          id="Vector_9"
          d="M178.925 428.793C176.91 432.642 173.611 435.692 169.581 437.432C165.552 439.171 161.037 439.496 156.793 438.35C152.55 437.204 148.836 434.657 146.274 431.137C143.712 427.617 142.459 423.338 142.723 419.016C142.988 414.695 144.755 410.594 147.727 407.402C150.7 404.21 154.698 402.121 159.05 401.484C163.403 400.847 167.846 401.702 171.634 403.906C175.422 406.109 178.325 409.526 179.856 413.585L167.861 423.182L181.055 420.178C181.055 423.176 180.324 426.13 178.925 428.793Z"
          fill="#009BE5"
        />
        <path
          id="Vector_10"
          d="M169.447 392.133C164.735 392.357 160.103 390.866 156.437 387.943C152.772 385.021 150.329 380.872 149.576 376.29C148.822 371.708 149.811 367.013 152.354 363.103C154.896 359.192 158.814 356.341 163.358 355.092L163.257 362.873L167.602 354.407H167.653C170.202 354.237 172.76 354.57 175.176 355.385C177.593 356.2 179.82 357.482 181.727 359.155C183.634 360.827 185.183 362.858 186.282 365.127C187.381 367.396 188.008 369.858 188.128 372.369C188.247 374.879 187.856 377.388 186.977 379.748C186.099 382.108 184.75 384.272 183.01 386.113C181.27 387.954 179.175 389.434 176.846 390.468C174.517 391.502 172.002 392.068 169.447 392.133Z"
          fill="#009BE5"
        />
        <path
          id="Vector_11"
          d="M216.039 361.636C213.069 361.775 210.107 361.233 207.386 360.053C204.665 358.874 202.26 357.089 200.36 354.839C198.46 352.589 197.117 349.936 196.437 347.088C195.758 344.241 195.759 341.277 196.442 338.43C197.125 335.584 198.471 332.932 200.374 330.684C202.276 328.436 204.683 326.654 207.405 325.477C210.128 324.301 213.09 323.762 216.06 323.904C219.03 324.046 221.925 324.864 224.519 326.295L221.164 335.437L228.143 328.836C229.996 330.5 231.497 332.508 232.561 334.744C233.625 336.979 234.23 339.399 234.341 341.865C234.437 343.626 234.276 345.39 233.863 347.105C232.904 351.105 230.644 354.688 227.427 357.31C224.211 359.933 220.212 361.451 216.039 361.636Z"
          fill="#009BE5"
        />
        <path
          id="Vector_12"
          opacity="0.1"
          d="M210.57 306.029C206.142 306.508 201.831 307.861 197.386 308.133C192.94 308.406 188.059 307.358 185.249 303.958C183.731 302.126 182.976 299.832 181.693 297.811C180.481 295.952 178.822 294.416 176.862 293.339C175.62 295.734 174.912 298.362 174.785 301.049C174.659 303.735 175.117 306.416 176.129 308.914C177.141 311.412 178.683 313.669 180.653 315.533C182.623 317.397 184.975 318.826 187.551 319.724C190.127 320.622 192.869 320.969 195.592 320.741C198.316 320.513 200.958 319.715 203.343 318.402C205.728 317.088 207.8 315.289 209.421 313.124C211.042 310.959 212.175 308.478 212.743 305.848C212.055 305.905 211.292 305.955 210.57 306.029Z"
          fill="black"
        />
        <path
          id="Vector_13"
          opacity="0.1"
          d="M216.039 361.636C212.737 361.778 209.453 361.081 206.505 359.61C203.557 358.139 201.045 355.945 199.211 353.239C197.377 350.534 196.283 347.409 196.036 344.166C195.788 340.923 196.395 337.672 197.798 334.728C199.325 335.734 200.636 337.026 201.656 338.532C203.023 340.561 203.853 342.905 205.463 344.77C208.449 348.227 213.557 349.357 218.186 349.151C222.816 348.945 227.286 347.649 231.907 347.237C232.545 347.179 233.19 347.138 233.836 347.121C232.875 351.114 230.618 354.691 227.407 357.309C224.196 359.928 220.206 361.447 216.039 361.636Z"
          fill="black"
        />
        <path
          id="Vector_14"
          opacity="0.1"
          d="M169.447 392.133C166.168 392.292 162.903 391.621 159.963 390.183C157.023 388.746 154.507 386.59 152.656 383.922C150.805 381.255 149.68 378.165 149.389 374.947C149.099 371.73 149.652 368.493 150.996 365.546C152.574 366.573 153.949 367.873 155.055 369.383C156.54 371.454 157.471 373.839 159.249 375.754C162.486 379.302 167.929 380.548 172.836 380.432C177.591 380.333 182.162 379.186 186.893 378.832C185.728 382.544 183.428 385.814 180.306 388.194C177.184 390.574 173.393 391.95 169.447 392.133Z"
          fill="black"
        />
        <path
          id="Vector_15"
          opacity="0.1"
          d="M178.923 428.794C176.67 433.08 172.836 436.356 168.207 437.948C163.577 439.541 158.504 439.33 154.028 437.359C149.551 435.388 146.011 431.807 144.134 427.349C142.256 422.891 142.184 417.896 143.931 413.387C145.505 414.408 146.917 415.651 148.125 417.076C149.953 419.271 151.152 421.747 153.266 423.785C157.191 427.581 163.524 429.141 169.202 429.289C172.45 429.311 175.695 429.146 178.923 428.794Z"
          fill="black"
        />
        <path
          id="Vector_16"
          d="M131 456.623C131 456.623 146.147 456.161 150.71 452.967C155.272 449.774 174.009 445.945 175.141 451.078C176.273 456.211 197.904 476.585 180.803 476.725C163.701 476.866 141.065 474.101 136.51 471.37C131.956 468.638 131 456.623 131 456.623Z"
          fill="#656380"
        />
        <path
          id="Vector_17"
          opacity="0.2"
          d="M181.113 474.945C164.012 475.077 141.375 472.321 136.821 469.589C133.348 467.51 131.965 460.05 131.503 456.608H131C131 456.608 131.956 468.624 136.51 471.355C141.065 474.087 163.702 476.843 180.803 476.711C185.743 476.67 187.446 474.945 187.353 472.387C186.666 473.947 184.787 474.912 181.113 474.945Z"
          fill="black"
        />
      </g>
      <g id="flower-small">
        <path
          id="Vector_18"
          d="M245.593 481C242.934 476.156 245.954 470.223 249.418 465.908C252.882 461.592 257.109 457.095 257.017 451.592C256.891 443.687 248.361 439.017 241.542 434.825C236.483 431.717 231.817 428.027 227.644 423.834C225.897 422.222 224.452 420.32 223.375 418.215C221.966 415.12 222.008 411.614 222.1 408.222C222.397 396.934 222.956 385.657 223.778 374.392"
          stroke="#3F3D56"
          stroke-width="4"
          stroke-miterlimit="10"
        />
        <path
          id="Vector_19"
          d="M210.836 373.731C210.934 371.671 211.557 369.668 212.647 367.906C213.737 366.144 215.26 364.68 217.075 363.648L219.876 369.11L219.792 362.509C222.343 361.765 225.068 361.838 227.573 362.718C230.078 363.598 232.234 365.239 233.729 367.404C235.224 369.569 235.981 372.145 235.889 374.761C235.797 377.377 234.862 379.896 233.219 381.954C231.576 384.013 229.31 385.504 226.749 386.211C224.188 386.919 221.465 386.807 218.973 385.892C216.48 384.976 214.349 383.305 212.886 381.118C211.423 378.932 210.705 376.345 210.836 373.731Z"
          fill="#009BE5"
        />
        <path
          id="Vector_20"
          d="M233.188 457.212C234.452 459.628 236.492 461.566 238.992 462.724C241.491 463.882 244.31 464.195 247.009 463.614C249.708 463.034 252.136 461.592 253.916 459.513C255.696 457.435 256.727 454.836 256.85 452.121C256.931 450.415 256.645 448.711 256.012 447.121C255.102 444.774 253.486 442.755 251.379 441.336C249.273 439.917 246.775 439.164 244.222 439.178C241.668 439.193 239.18 439.974 237.09 441.416C235 442.859 233.407 444.896 232.525 447.253L240.36 453.523L231.745 451.56C231.75 453.531 232.246 455.472 233.188 457.212Z"
          fill="#009BE5"
        />
        <path
          id="Vector_21"
          d="M239.372 433.273C242.69 433.415 245.93 432.26 248.386 430.06C250.842 427.861 252.314 424.795 252.482 421.532C252.583 419.6 252.212 417.673 251.4 415.912C250.647 414.265 249.537 412.8 248.147 411.62C246.758 410.439 245.122 409.573 243.356 409.08L243.415 414.163L240.563 408.634C237.246 408.495 234.008 409.651 231.554 411.851C229.1 414.05 227.629 417.115 227.462 420.376C227.387 421.799 227.569 423.224 227.999 424.585C228.763 427.004 230.263 429.134 232.297 430.688C234.331 432.242 236.8 433.144 239.372 433.273Z"
          fill="#009BE5"
        />
        <path
          id="Vector_22"
          d="M208.949 413.338C212.267 413.479 215.508 412.324 217.964 410.125C220.421 407.925 221.893 404.86 222.06 401.597C222.151 399.403 221.647 397.225 220.6 395.287C219.553 393.348 218 391.718 216.101 390.564C214.202 389.41 212.026 388.774 209.794 388.721C207.563 388.667 205.358 389.198 203.404 390.26L205.618 396.234L201.063 391.926C199.239 393.573 197.951 395.713 197.361 398.079C196.771 400.444 196.907 402.928 197.75 405.218C198.593 407.507 200.106 409.5 202.099 410.945C204.092 412.391 206.476 413.223 208.949 413.338Z"
          fill="#009BE5"
        />
        <path
          id="Vector_23"
          opacity="0.1"
          d="M212.519 377.032C215.405 377.345 218.224 378.228 221.126 378.41C224.028 378.591 227.216 377.898 229.053 375.679C230.043 374.482 230.538 372.972 231.377 371.668C232.17 370.454 233.253 369.449 234.531 368.739C235.509 370.663 235.961 372.804 235.842 374.952C235.723 377.1 235.037 379.18 233.851 380.987C232.666 382.795 231.022 384.267 229.082 385.259C227.142 386.251 224.972 386.729 222.787 386.645C220.025 386.512 217.385 385.488 215.274 383.731C213.164 381.974 211.7 379.582 211.11 376.925C211.571 376.958 212.041 377.032 212.519 377.032Z"
          fill="black"
        />
        <path
          id="Vector_24"
          opacity="0.1"
          d="M208.949 413.338C212.267 413.479 215.507 412.324 217.963 410.125C220.419 407.925 221.891 404.859 222.058 401.596C222.16 399.579 221.75 397.569 220.867 395.745C219.873 396.402 219.019 397.243 218.351 398.221C217.454 399.541 216.917 401.076 215.835 402.297C213.881 404.55 210.542 405.293 207.523 405.152C204.503 405.012 201.576 404.179 198.557 403.906C198.146 403.865 197.718 403.84 197.299 403.832C197.921 406.449 199.397 408.795 201.5 410.511C203.603 412.227 206.219 413.22 208.949 413.338Z"
          fill="black"
        />
        <path
          id="Vector_25"
          opacity="0.1"
          d="M239.373 433.273C242.691 433.415 245.931 432.26 248.387 430.06C250.843 427.86 252.315 424.794 252.483 421.531C252.584 419.6 252.213 417.673 251.401 415.912C250.371 416.571 249.473 417.41 248.75 418.387C247.777 419.74 247.173 421.292 246.032 422.513C243.919 424.832 240.362 425.649 237.158 425.575C233.954 425.5 231.069 424.749 227.982 424.527C228.737 426.959 230.235 429.104 232.274 430.669C234.312 432.234 236.79 433.144 239.373 433.273Z"
          fill="black"
        />
        <path
          id="Vector_26"
          opacity="0.1"
          d="M233.189 457.211C234.452 459.628 236.493 461.566 238.992 462.724C241.492 463.882 244.31 464.195 247.009 463.614C249.708 463.034 252.136 461.592 253.916 459.513C255.696 457.435 256.727 454.836 256.85 452.121C256.931 450.414 256.645 448.711 256.012 447.12C254.978 447.788 254.051 448.603 253.26 449.538C252.069 450.965 251.281 452.583 249.905 453.919C247.339 456.395 243.195 457.41 239.521 457.509C237.406 457.534 235.292 457.434 233.189 457.211Z"
          fill="black"
        />
        <path
          id="Vector_27"
          d="M264.489 475.399C264.489 475.399 254.592 475.093 251.615 473.006C248.638 470.918 236.393 468.427 235.68 471.777C234.967 475.126 220.818 488.435 231.981 488.518C243.144 488.6 257.93 486.81 260.908 485.028C263.885 483.245 264.489 475.399 264.489 475.399Z"
          fill="#656380"
        />
        <path
          id="Vector_28"
          opacity="0.2"
          d="M231.755 487.356C242.926 487.447 257.754 485.648 260.681 483.866C262.954 482.504 263.852 477.628 264.154 475.383H264.489C264.489 475.383 263.86 483.23 260.883 485.013C257.905 486.795 243.128 488.594 231.956 488.503C228.736 488.503 227.62 487.356 227.679 485.681C228.132 486.704 229.356 487.339 231.755 487.356Z"
          fill="black"
        />
      </g>
      <g id="fish2">
        <path
          id="fish2_2"
          opacity="0.6"
          d="M558.248 382.385C577.271 386.131 587.663 360.749 587.663 360.749C585.44 364.05 583.469 363.711 573.044 362.969C562.618 362.226 553.258 369.421 553.258 369.421C538.236 327.686 500.845 352.093 500.845 352.093C502.428 359.502 506.435 366.197 512.251 371.154C510.096 373.349 507.462 376.551 508.276 378.416C509.215 380.602 515.38 377.524 518.819 375.594C519.473 375.948 520.136 376.278 520.798 376.592C521.058 379.711 521.553 387.822 519.901 391.874C519.901 391.874 527.659 394.258 532.18 380.388C537.235 381.493 542.413 381.959 547.588 381.774C547.588 381.774 538.244 402.51 544.065 406.083C549.886 409.656 552.922 419.491 552.922 419.491C569.403 405.34 558.248 382.385 558.248 382.385Z"
          fill="#FE7D1E"
        />
      </g>
      <g id="fish1">
        <path
          id="fish1_2"
          opacity="0.6"
          d="M439.499 341.827C458.581 338.362 458.664 311 458.664 311C457.826 314.911 455.871 315.291 445.932 318.426C435.993 321.562 429.997 331.67 429.997 331.67C400.297 298.359 374.766 334.632 374.766 334.632C379.028 340.934 385.27 345.69 392.539 348.173C391.364 350.995 390.123 354.931 391.582 356.375C393.26 358.025 397.848 352.95 400.314 349.906C401.052 349.988 401.79 350.062 402.528 350.112C403.945 352.909 407.46 360.261 407.451 364.626C407.451 364.626 415.553 364.016 414.53 349.485C419.667 348.66 424.676 347.193 429.435 345.12C429.435 345.12 428.596 367.787 435.306 368.975C442.016 370.163 448.591 378.2 448.591 378.2C458.555 359.081 439.499 341.827 439.499 341.827Z"
          fill="#FE7D1E"
        />
      </g>
      <g id="data3">
        <path
          id="Ball1Out"
          opacity="0.3"
          d="M469.66 128.016C478.86 128.016 486.319 120.557 486.319 111.356C486.319 102.155 478.86 94.6965 469.66 94.6965C460.459 94.6965 453 102.155 453 111.356C453 120.557 460.459 128.016 469.66 128.016Z"
          fill="#6C63FF"
        />
        <path
          id="Ball1In"
          d="M469.66 119.248C474.018 119.248 477.551 115.714 477.551 111.356C477.551 106.998 474.018 103.465 469.66 103.465C465.301 103.465 461.768 106.998 461.768 111.356C461.768 115.714 465.301 119.248 469.66 119.248Z"
          fill="#2F2E41"
        />
        <path
          id="ArrowLine"
          d="M470.098 111.794H468.344V21.4821H816.442V23.2361H470.098V111.794Z"
          fill="#2F2E41"
        />
        <path
          id="Ball2In"
          d="M837.924 30.6887C842.282 30.6887 845.815 27.1556 845.815 22.7973C845.815 18.439 842.282 14.9059 837.924 14.9059C833.566 14.9059 830.033 18.439 830.033 22.7973C830.033 27.1556 833.566 30.6887 837.924 30.6887Z"
          fill="#6C63FF"
        />
        <path
          id="Ball2Out"
          d="M837.924 45.5946C833.415 45.5946 829.007 44.2576 825.258 41.7526C821.509 39.2476 818.587 35.6872 816.862 31.5215C815.136 27.3558 814.685 22.772 815.564 18.3498C816.444 13.9275 818.615 9.86545 821.804 6.67719C824.992 3.48893 829.054 1.31769 833.476 0.438054C837.898 -0.441586 842.482 0.00987935 846.648 1.73536C850.814 3.46083 854.374 6.38281 856.879 10.1318C859.384 13.8808 860.721 18.2885 860.721 22.7973C860.714 28.8415 858.31 34.6361 854.036 38.91C849.763 43.1838 843.968 45.5879 837.924 45.5946ZM837.924 1.75364C833.762 1.75363 829.693 2.98784 826.233 5.30014C822.772 7.61245 820.075 10.899 818.482 14.7442C816.889 18.5895 816.472 22.8207 817.284 26.9027C818.096 30.9848 820.101 34.7344 823.044 37.6774C825.987 40.6204 829.736 42.6247 833.818 43.4366C837.9 44.2486 842.132 43.8319 845.977 42.2391C849.822 40.6464 853.109 37.9492 855.421 34.4886C857.733 31.0279 858.967 26.9594 858.967 22.7973C858.961 17.2181 856.742 11.8693 852.797 7.92426C848.852 3.97919 843.503 1.76005 837.924 1.75367V1.75364Z"
          fill="#2F2E41"
        />
        <path
          id="UpperLine"
          d="M886.149 64.0079H789.699V70.1456H886.149V64.0079Z"
          fill="#2F2E41"
        />
        <path
          id="MiddleLine"
          d="M886.149 81.5443H789.699V87.682H886.149V81.5443Z"
          fill="#2F2E41"
        />
        <path
          id="DownLine"
          d="M886.149 99.0807H789.699V105.218H886.149V99.0807Z"
          fill="#2F2E41"
        />
      </g>
      <g id="data1">
        <path
          id="Ball1Out_2"
          opacity="0.3"
          d="M345.858 151.4C355.059 151.4 362.517 143.941 362.517 134.74C362.517 125.539 355.059 118.081 345.858 118.081C336.657 118.081 329.198 125.539 329.198 134.74C329.198 143.941 336.657 151.4 345.858 151.4Z"
          fill="#6C63FF"
        />
        <path
          id="Ball1In_2"
          d="M345.858 142.632C350.216 142.632 353.749 139.099 353.749 134.74C353.749 130.382 350.216 126.849 345.858 126.849C341.5 126.849 337.966 130.382 337.966 134.74C337.966 139.099 341.5 142.632 345.858 142.632Z"
          fill="#2F2E41"
        />
        <path
          id="Ball2In_2"
          d="M101.225 49.6887C105.583 49.6887 109.116 46.1556 109.116 41.7973C109.116 37.439 105.583 33.906 101.225 33.906C96.8668 33.906 93.3337 37.439 93.3337 41.7973C93.3337 46.1556 96.8668 49.6887 101.225 49.6887Z"
          fill="#6C63FF"
        />
        <path
          id="Ball2Out_2"
          d="M101.225 64.5947C96.7162 64.5947 92.3086 63.2576 88.5596 60.7526C84.8106 58.2476 81.8886 54.6872 80.1631 50.5215C78.4376 46.3558 77.9861 41.772 78.8658 37.3498C79.7454 32.9275 81.9167 28.8655 85.1049 25.6772C88.2932 22.4889 92.3553 20.3177 96.7775 19.4381C101.2 18.5584 105.784 19.0099 109.949 20.7354C114.115 22.4608 117.675 25.3828 120.18 29.1318C122.685 32.8808 124.022 37.2885 124.022 41.7973C124.016 47.8415 121.611 53.6361 117.338 57.9099C113.064 62.1838 107.269 64.5878 101.225 64.5947ZM101.225 20.7537C97.063 20.7537 92.9945 21.9878 89.5338 24.3001C86.0732 26.6125 83.376 29.899 81.7832 33.7443C80.1905 37.5895 79.7738 41.8207 80.5858 45.9027C81.3977 49.9848 83.4019 53.7345 86.3449 56.6775C89.288 59.6205 93.0376 61.6247 97.1197 62.4367C101.202 63.2486 105.433 62.8319 109.278 61.2392C113.123 59.6464 116.41 56.9492 118.722 53.4886C121.035 50.0279 122.269 45.9594 122.269 41.7973C122.262 36.2182 120.043 30.8693 116.098 26.9243C112.153 22.9792 106.804 20.7601 101.225 20.7537V20.7537Z"
          fill="#2F2E41"
        />
        <path
          id="ArrowLine_2"
          d="M346.735 134.741H344.981V46.1676L123.132 42.6736L123.159 40.9207L346.735 44.4416V134.741Z"
          fill="#2F2E41"
        />
        <path
          id="UpperLine_2"
          d="M149.45 83.8847H53V90.0224H149.45V83.8847Z"
          fill="#2F2E41"
        />
        <path
          id="MiddleLine_2"
          d="M149.45 101.421H53V107.559H149.45V101.421Z"
          fill="#2F2E41"
        />
        <path
          id="DownLine_2"
          d="M149.45 118.957H53V125.095H149.45V118.957Z"
          fill="#2F2E41"
        />
      </g>
      <g id="data2">
        <path
          id="Ball2Out_3"
          opacity="0.3"
          d="M474.66 302.319C483.86 302.319 491.319 294.86 491.319 285.66C491.319 276.459 483.86 269 474.66 269C465.459 269 458 276.459 458 285.66C458 294.86 465.459 302.319 474.66 302.319Z"
          fill="#6C63FF"
        />
        <path
          id="Ball1In_3"
          d="M474.66 294.428C479.018 294.428 482.551 290.895 482.551 286.536C482.551 282.178 479.018 278.645 474.66 278.645C470.301 278.645 466.768 282.178 466.768 286.536C466.768 290.895 470.301 294.428 474.66 294.428Z"
          fill="#2F2E41"
        />
        <path
          id="Ball2In_3"
          d="M747.351 383.863C751.709 383.863 755.242 380.33 755.242 375.972C755.242 371.614 751.709 368.081 747.351 368.081C742.992 368.081 739.459 371.614 739.459 375.972C739.459 380.33 742.992 383.863 747.351 383.863Z"
          fill="#6C63FF"
        />
        <path
          id="Ball2Out_4"
          d="M747.35 398.769C742.842 398.769 738.434 397.432 734.685 394.927C730.936 392.422 728.014 388.862 726.289 384.696C724.563 380.53 724.112 375.947 724.991 371.524C725.871 367.102 728.042 363.04 731.23 359.852C734.419 356.664 738.481 354.492 742.903 353.613C747.325 352.733 751.909 353.185 756.075 354.91C760.24 356.635 763.801 359.557 766.306 363.306C768.811 367.055 770.148 371.463 770.148 375.972C770.141 382.016 767.737 387.811 763.463 392.085C759.189 396.359 753.395 398.763 747.35 398.769ZM747.35 354.928C743.188 354.928 739.12 356.162 735.659 358.475C732.199 360.787 729.501 364.074 727.909 367.919C726.316 371.764 725.899 375.995 726.711 380.077C727.523 384.159 729.527 387.909 732.47 390.852C735.413 393.795 739.163 395.799 743.245 396.611C747.327 397.423 751.558 397.007 755.404 395.414C759.249 393.821 762.535 391.124 764.848 387.663C767.16 384.203 768.394 380.134 768.394 375.972C768.388 370.393 766.169 365.044 762.224 361.099C758.279 357.154 752.93 354.935 747.35 354.928Z"
          fill="#2F2E41"
        />
        <path
          id="ArrowLine_3"
          d="M725.43 376.848L473.783 376.848V286.536H475.537V375.095L725.43 375.095V376.848Z"
          fill="#2F2E41"
        />
        <path
          id="UpperLine_3"
          d="M795.576 417.182H699.125V423.32H795.576V417.182Z"
          fill="#2F2E41"
        />
        <path
          id="MiddleLine_3"
          d="M795.576 434.719H699.125V440.857H795.576V434.719Z"
          fill="#2F2E41"
        />
        <path
          id="DownLine_3"
          d="M795.576 452.255H699.125V458.393H795.576V452.255Z"
          fill="#2F2E41"
        />
      </g>
    <defs>
      <clipPath id="clip0">
        <rect width="887" height="490" fill="white" />
      </clipPath>
    </defs>
  </svg>